<svg width="96" height="96" xmlns="http://www.w3.org/2000/svg" xmlns:xlink="http://www.w3.org/1999/xlink" xml:space="preserve" overflow="hidden"><defs><clipPath id="clip0"><rect x="0" y="0" width="96" height="96"/></clipPath></defs><g clip-path="url(#clip0)"><path d="M46.8 28.429C49.0091 28.429 50.8 26.6381 50.8 24.429 50.8 22.2199 49.0091 20.429 46.8 20.429 44.5909 20.429 42.8 22.2199 42.8 24.429 42.8131 26.6327 44.5963 28.4159 46.8 28.429ZM46.8 22.429C47.9046 22.429 48.8 23.3244 48.8 24.429 48.8 25.5336 47.9046 26.429 46.8 26.429 45.6954 26.429 44.8 25.5336 44.8 24.429 44.814 23.3303 45.7013 22.443 46.8 22.429Z"/><path d="M34.8 47.762C37.0091 47.762 38.8 45.9711 38.8 43.762 38.8 41.5529 37.0091 39.762 34.8 39.762 32.5909 39.762 30.8 41.5529 30.8 43.762 30.8 45.9711 32.5909 47.762 34.8 47.762ZM34.8 41.762C35.9046 41.762 36.8 42.6574 36.8 43.762 36.8 44.8666 35.9046 45.762 34.8 45.762 33.6954 45.762 32.8 44.8666 32.8 43.762 32.8 42.6574 33.6954 41.762 34.8 41.762Z"/><path d="M26.71 48.143 25.853 50.619 27.753 52.524 30.229 51.762C30.8851 52.1451 31.5921 52.4337 32.329 52.619L33.47 55 36.136 55 37.184 52.714C37.9209 52.5287 38.6278 52.2401 39.284 51.857L41.759 52.714 43.659 50.814 42.9 48.333C43.2825 47.6783 43.5709 46.9731 43.757 46.238L46.137 45.095 46.232 42.238 43.849 41.1C43.6632 40.3633 43.3747 39.6563 42.992 39L43.849 36.524 41.949 34.619 39.473 35.476C38.8182 35.0937 38.113 34.8052 37.378 34.619L36.236 32.238 33.47 32.238 32.328 34.619C31.5913 34.8048 30.8843 35.0933 30.228 35.476L27.752 34.619 25.852 36.524 26.71 39C26.3273 39.6546 26.0388 40.3599 25.853 41.095L23.473 42.238 23.473 44.905 25.853 46.048C26.0388 46.7831 26.3273 47.4884 26.71 48.143ZM25.473 43.5 26.719 42.9 27.566 42.494 27.793 41.582C27.9342 41.0242 28.1544 40.4894 28.447 39.994L28.897 39.206 28.597 38.348 28.149 37.055 28.283 36.921 29.576 37.368 30.434 37.668 31.222 37.218C31.7175 36.9256 32.2523 36.7054 32.81 36.564L33.721 36.336 34.128 35.489 34.728 34.243 34.972 34.243 35.572 35.489 35.979 36.336 36.89 36.564C37.4477 36.7054 37.9825 36.9256 38.478 37.218L39.266 37.668 40.124 37.368 41.417 36.921 41.55 37.055 41.1 38.346 40.8 39.204 41.25 39.992C41.542 40.4877 41.7622 41.0224 41.904 41.58L42.131 42.492 42.978 42.898 44.178 43.476 44.167 43.817 42.879 44.435 42.032 44.842 41.804 45.753C41.6634 46.3108 41.4435 46.8456 41.151 47.341L40.721 48.093 40.976 48.921 41.384 50.247 41.216 50.415 39.924 49.967 39.066 49.667 38.277 50.118C37.7817 50.4099 37.2473 50.6297 36.69 50.771L35.757 51.004 35.357 51.878 34.853 53 34.729 53 34.129 51.754 33.722 50.907 32.811 50.679C32.2532 50.5378 31.7184 50.3176 31.223 50.025L30.471 49.595 29.643 49.85 28.318 50.258 28.15 50.09 28.6 48.8 28.9 47.942 28.45 47.154C28.1576 46.6585 27.9374 46.1237 27.796 45.566L27.569 44.654 26.722 44.248 25.476 43.648Z"/><path d="M38.612 28.905 37.755 31.381 39.655 33.286 42.131 32.429C42.7858 32.8113 43.491 33.0998 44.226 33.286L45.368 35.667 48.034 35.667 49.177 33.381C49.9137 33.1952 50.6207 32.9067 51.277 32.524L53.752 33.381 55.657 31.476 54.8 29C55.2124 28.3489 55.5328 27.6439 55.752 26.905L58.132 25.762 58.132 22.905 55.752 21.762C55.5659 21.0269 55.2775 20.3217 54.895 19.667L55.752 17.19 53.852 15.29 51.376 16.147C50.7214 15.7643 50.0161 15.4758 49.281 15.29L48.134 13 45.468 13 44.325 15.381C43.5881 15.5663 42.8811 15.8549 42.225 16.238L39.75 15.381 37.85 17.286 38.612 19.762C38.2297 20.4168 37.9412 21.122 37.755 21.857L35.375 23 35.375 25.667 37.755 26.81C37.9414 27.5449 38.2299 28.2501 38.612 28.905ZM37.375 24.258 38.621 23.658 39.468 23.252 39.695 22.34C39.8366 21.7823 40.0568 21.2477 40.349 20.752L40.778 20 40.524 19.172 40.116 17.846 40.284 17.679 41.576 18.126 42.434 18.426 43.223 17.976C43.7181 17.6834 44.2525 17.4632 44.81 17.322L45.722 17.094 46.128 16.247 46.728 15.001 46.9 15.001 47.49 16.181 47.9 17 48.792 17.223C49.3496 17.3642 49.8843 17.5841 50.38 17.876L51.168 18.327 52.026 18.027 53.319 17.579 53.452 17.713 53 19.013 52.7 19.87 53.15 20.659C53.4424 21.1546 53.6626 21.6893 53.804 22.247L54.031 23.158 54.878 23.565 56.124 24.165 56.124 24.5 54.878 25.1 54.031 25.506 53.804 26.418C53.6241 26.9775 53.3724 27.5113 53.055 28.006L52.605 28.794 52.905 29.652 53.352 30.945 53.218 31.079 51.926 30.632 51.068 30.332 50.279 30.782C49.7839 31.0746 49.2495 31.2948 48.692 31.436L47.799 31.659 47.388 32.482 46.798 33.662 46.627 33.662 46.027 32.415 45.62 31.568 44.709 31.34C44.1512 31.1992 43.6165 30.9793 43.121 30.687L42.333 30.237 41.475 30.537 40.182 30.984 40.049 30.85 40.496 29.557 40.796 28.699 40.346 27.911C40.054 27.4153 39.8338 26.8806 39.692 26.323L39.465 25.411 38.618 25.005 37.372 24.405Z"/><path d="M25.8 61.017 25.8 86.324 57.4 86.324 57.4 74.324 62.3 74.324C65.4535 74.3183 68.4754 73.0591 70.7 70.824 72.8937 68.5394 74.113 65.4913 74.1 62.324L74.1 56.324 78.5 56.324C81.1 56.024 83.4 53.024 81 49.324L74.1 37.324 74.1 36.824C74.7495 20.2278 61.8221 6.24752 45.2259 5.59806 28.6298 4.94861 14.6495 17.876 14 34.4721 13.9693 35.2558 13.9693 36.0403 14 36.824 13.9655 46.2826 18.3251 55.221 25.8 61.017ZM29.716 11.526C43.046 3.6081 60.2709 7.99551 68.1888 21.3255 70.9524 25.9782 72.3124 31.3304 72.105 36.738L72.105 37.844 72.371 38.307 79.271 50.307 79.298 50.353 79.327 50.398C79.9763 51.1817 80.1682 52.248 79.833 53.209 79.5494 53.789 79.0051 54.1981 78.369 54.309L72.1 54.309 72.1 62.309C72.1107 64.9465 71.1022 67.4863 69.285 69.398 67.4409 71.2667 64.9254 72.3194 62.3 72.321L55.4 72.321 55.4 84.321 27.8 84.321 27.8 60.036 27.024 59.436C20.0221 54.0257 15.9453 45.6584 16 36.81L16 36.774 16 36.738C15.594 26.4523 20.8606 16.7723 29.717 11.526Z"/></g></svg>