<svg width="96" height="96" xmlns="http://www.w3.org/2000/svg" xmlns:xlink="http://www.w3.org/1999/xlink" xml:space="preserve" overflow="hidden"><defs><clipPath id="clip0"><rect x="0" y="0" width="96" height="96"/></clipPath></defs><g clip-path="url(#clip0)"><path d="M82 51.7 75.1 39.7 75.1 39.2C75.523 28.1851 69.8812 17.8226 60.4 12.2 55.2477 9.35313 49.4397 7.90511 43.554 8 37.6656 7.9037 31.8547 9.35178 26.7 12.2 17.2188 17.8226 11.577 28.1851 12 39.2 11.994 43.3198 12.8099 47.3994 14.4 51.2 16.2923 55.5877 20.6217 58.4215 25.4 58.4L44 58.4C47.3096 58.4099 49.9901 61.0904 50 64.4L50 69.2C50.0134 71.6647 51.5146 73.877 53.8 74.8L55.2 75.4 64.3 78.9C68.4206 80.5112 73.0671 78.4769 74.6782 74.3563 74.6856 74.3376 74.6928 74.3188 74.7 74.3 75.0674 73.3789 75.2377 72.391 75.2 71.4L75.2 58.7 79.6 58.7C82.1 58.4 84.4 55.4 82 51.7ZM80.828 55.622C80.5684 56.1776 80.061 56.5775 79.46 56.7L73.2 56.7 73.2 71.4C73.2357 72.1112 73.1241 72.822 72.872 73.488L72.85 73.537 72.831 73.588C71.6448 76.688 68.17 78.2394 65.07 77.0532 65.0527 77.0465 65.0353 77.0398 65.018 77.033L55.953 73.547 54.588 72.962 54.558 72.949 54.529 72.938C53.0116 72.3133 52.0154 70.8409 52 69.2L52 64.4C51.995 59.9838 48.4162 56.405 44 56.4L25.4 56.4C21.4288 56.4132 17.8298 54.0644 16.243 50.424 14.7617 46.8674 13.9993 43.0527 14 39.2L14 39.164 14 39.127C13.5969 28.845 18.8638 19.1697 27.718 13.927 32.5623 11.2554 38.0227 9.90133 43.554 10 49.0842 9.90059 54.5438 11.2533 59.388 13.923 68.2423 19.1655 73.509 28.841 73.105 39.123L73.105 40.23 73.371 40.693 80.271 52.693 80.298 52.739 80.327 52.784C80.982 53.5757 81.1737 54.653 80.832 55.622Z"/><path d="M37.5 46.9 37.5 39.4 30 39.4C30.0121 43.5371 33.3629 46.8879 37.5 46.9Z"/><path d="M37.5 32 37.5 39.4 44.9 39.4C44.9172 35.3302 41.6319 32.0172 37.5621 32 37.5414 31.9999 37.5207 31.9999 37.5 32Z"/><path d="M66 35.4C63.7909 35.4 62 37.1909 62 39.4 62 41.6091 63.7909 43.4 66 43.4 68.2091 43.4 70 41.6091 70 39.4 70.0239 37.2147 68.2717 35.4239 66.0865 35.4 66.0576 35.3997 66.0288 35.3997 66 35.4ZM66 41.4C64.8954 41.4 64 40.5046 64 39.4 64 38.2954 64.8954 37.4 66 37.4 67.1046 37.4 68 38.2954 68 39.4 68.0246 40.48 67.169 41.3754 66.089 41.4 66.0593 41.4007 66.0297 41.4007 66 41.4Z"/><path d="M45 66 26 66C25.4477 66 25 66.4477 25 67 25 67.5523 25.4477 68 26 68L45 68C45.5523 68 46 67.5523 46 67 46 66.4477 45.5523 66 45 66Z"/><path d="M45 75 26 75C25.4477 75 25 75.4477 25 76 25 76.5523 25.4477 77 26 77L45 77C45.5523 77 46 76.5523 46 76 46 75.4477 45.5523 75 45 75Z"/><path d="M45 84 26 84C25.4477 84 25 84.4477 25 85 25 85.5523 25.4477 86 26 86L45 86C45.5523 86 46 85.5523 46 85 46 84.4477 45.5523 84 45 84Z"/><path d="M37.5 28.4C31.4249 28.4 26.5 33.3249 26.5 39.4 26.5 45.4751 31.4249 50.4 37.5 50.4 43.5751 50.4 48.5 45.4751 48.5 39.4 48.5177 33.3426 43.6215 28.4177 37.5641 28.4 37.5427 28.3999 37.5214 28.3999 37.5 28.4ZM37.5 48.4C32.5294 48.4 28.5 44.3706 28.5 39.4 28.5 34.4294 32.5294 30.4 37.5 30.4 42.4706 30.4 46.5 34.4294 46.5 39.4 46.4945 44.3683 42.4683 48.3945 37.5 48.4Z"/></g></svg>