<svg width="96" height="96" xmlns="http://www.w3.org/2000/svg" xmlns:xlink="http://www.w3.org/1999/xlink" xml:space="preserve" overflow="hidden"><defs><clipPath id="clip0"><rect x="0" y="0" width="96" height="96"/></clipPath></defs><g clip-path="url(#clip0)"><path d="M7.431 64 17.506 57.025 27.581 64 24.094 52.375 32.756 44.842 41.418 52.375 37.931 64 48.006 57.025 58.081 64 54.593 52.375 63.256 44.842 71.918 52.375 68.431 64 78.506 57.025 88.581 64 85.093 52.375 94.006 44.625 82.381 44.625 78.506 33 74.631 44.625 51.881 44.625 48.006 33 44.131 44.625 21.381 44.625 17.506 33 13.631 44.625 2.006 44.625 10.918 52.375ZM74.631 46.625 76.072 46.625 76.528 45.258 78.506 39.324 80.484 45.258 80.939 46.625 88.658 46.625 83.781 50.866 82.807 51.713 83.178 52.95 85.024 59.105 79.644 55.381 78.506 54.592 77.367 55.381 71.987 59.105 73.834 52.95 74.205 51.713 73.231 50.866 68.354 46.625ZM44.131 46.625 45.572 46.625 46.028 45.258 48.006 39.324 49.984 45.258 50.439 46.625 58.158 46.625 53.281 50.866 52.307 51.713 52.678 52.95 54.524 59.105 49.144 55.381 48.006 54.592 46.867 55.381 41.487 59.105 43.334 52.95 43.705 51.713 42.731 50.866 37.854 46.625Z"/></g></svg>