<svg width="96" height="96" xmlns="http://www.w3.org/2000/svg" xmlns:xlink="http://www.w3.org/1999/xlink" xml:space="preserve" overflow="hidden"><defs><clipPath id="clip0"><rect x="0" y="0" width="96" height="96"/></clipPath></defs><g clip-path="url(#clip0)"><path d="M7.431 64 17.506 57.025 27.581 64 24.094 52.376 32.756 44.844 41.418 52.376 37.931 64 48.006 57.025 58.081 64 54.594 52.376 63.256 44.844 71.918 52.376 68.431 64 78.506 57.025 88.581 64 85.093 52.376 94.006 44.626 82.381 44.626 78.506 33 74.631 44.626 51.881 44.626 48.006 33 44.131 44.626 21.381 44.626 17.506 33 13.631 44.626 2.006 44.626 10.918 52.376ZM74.631 46.625 76.072 46.625 76.528 45.258 78.506 39.325 80.484 45.258 80.939 46.625 88.658 46.625 83.781 50.866 82.807 51.713 83.178 52.95 85.024 59.105 79.644 55.381 78.506 54.593 77.367 55.381 71.987 59.105 73.834 52.95 74.205 51.713 73.231 50.866 68.354 46.625Z"/></g></svg>