<svg width="96" height="96" xmlns="http://www.w3.org/2000/svg" xmlns:xlink="http://www.w3.org/1999/xlink" xml:space="preserve" overflow="hidden"><defs><clipPath id="clip0"><rect x="0" y="0" width="96" height="96"/></clipPath></defs><g clip-path="url(#clip0)"><path d="M94.006 44.627 82.381 44.627 78.506 33.002 74.631 44.627 63.506 44.627 63.006 44.627 51.881 44.627 48.006 33.002 44.131 44.627 33.006 44.627 32.506 44.627 21.381 44.627 17.506 33.002 13.631 44.627 2.006 44.627 10.918 52.377 7.431 64.002 17.506 57.027 27.581 64.002 24.094 52.377 32.756 44.845 41.418 52.377 37.931 64.002 48.006 57.027 58.081 64.002 54.594 52.377 63.256 44.845 71.918 52.377 68.431 64.002 78.506 57.027 88.581 64.002 85.094 52.377 94.006 44.627Z"/></g></svg>